<svg xmlns="http://www.w3.org/2000/svg" xmlns:xlink="http://www.w3.org/1999/xlink" viewBox="0,0,256,256" width="24px" height="24px" fill-rule="nonzero"><g transform="translate(-66.56,-66.56) scale(1.52,1.52)"><g fill="#e8e6e3" fill-rule="nonzero" stroke="none" stroke-width="1" stroke-linecap="butt" stroke-linejoin="miter" stroke-miterlimit="10" stroke-dasharray="" stroke-dashoffset="0" font-family="none" font-weight="none" font-size="none" text-anchor="none" style="mix-blend-mode: normal"><g transform="translate(-12.44519,2.8) scale(2.56,2.56)"><path d="M54.66797,16.88086c-17.659,0 -32.02539,14.36639 -32.02539,32.02539c0,17.659 14.36639,32.02539 32.02539,32.02539c16.988,0 31.03166,-13.27561 31.97266,-30.22461c0.025,-0.452 -0.25936,-0.86586 -0.69336,-1.00586c-0.431,-0.138 -0.90544,0.03202 -1.14844,0.41602c-4.093,6.44 -11.08231,10.28516 -18.69531,10.28516c-12.208,0 -22.14062,-9.93263 -22.14062,-22.14062c0,-8.144 4.454,-15.61128 11.625,-19.48828c0.4,-0.217 0.60409,-0.67714 0.49609,-1.11914c-0.109,-0.441 -0.50203,-0.75572 -0.95703,-0.76172l-0.17578,-0.00391c-0.095,-0.004 -0.1882,-0.00781 -0.2832,-0.00781zM23.41602,17.8457c-0.18212,0 -0.36377,0.08586 -0.44727,0.25586l-1.06836,2.16797l-2.39062,0.34766c-0.188,0.027 -0.3453,0.15884 -0.4043,0.33984c-0.059,0.181 -0.011,0.38067 0.125,0.51367l1.73047,1.68555l-0.4082,2.38086c-0.032,0.188 0.04522,0.37923 0.19922,0.49023c0.154,0.112 0.35839,0.12711 0.52539,0.03711l2.14063,-1.12305l2.13867,1.12305c0.073,0.039 0.15147,0.05664 0.23047,0.05664c0.104,0 0.20792,-0.0317 0.29492,-0.0957c0.154,-0.111 0.23122,-0.30028 0.19922,-0.48828l-0.4082,-2.38086l1.73047,-1.68555c0.136,-0.133 0.184,-0.33267 0.125,-0.51367c-0.059,-0.181 -0.2153,-0.3138 -0.4043,-0.3418l-2.39062,-0.34766l-1.06836,-2.16602c-0.084,-0.17 -0.26709,-0.25586 -0.44922,-0.25586zM51.48242,19.05078c-5.948,4.526 -9.51953,11.59889 -9.51953,19.21289c0,13.312 10.82963,24.14063 24.14063,24.14063c7.031,0 13.57209,-3.00736 18.12109,-8.19336c-2.51,14.122 -14.85669,24.72266 -29.55469,24.72266c-16.556,0 -30.02734,-13.47039 -30.02734,-30.02539c0,-15.48 11.77584,-28.26242 26.83984,-29.85742zM23.41406,19.45313l0.73828,1.49414c0.073,0.147 0.212,0.24944 0.375,0.27344l1.64844,0.24023l-1.19336,1.16016c-0.118,0.115 -0.16958,0.28136 -0.14258,0.44336l0.2793,1.64258l-1.47461,-0.77344c-0.073,-0.038 -0.15242,-0.05859 -0.23242,-0.05859c-0.08,0 -0.15847,0.02059 -0.23047,0.05859l-1.4707,0.77344l0.2793,-1.64258c0.028,-0.162 -0.02458,-0.32836 -0.14258,-0.44336l-1.19336,-1.16016l1.64844,-0.24023c0.163,-0.024 0.303,-0.12644 0.375,-0.27344zM46.52734,21.47461c-0.0648,-0.00636 -0.13247,-0.00147 -0.19922,0.01953c-2.624,0.815 -5.09661,2.03972 -7.34961,3.63672c-0.226,0.16 -0.27814,0.47227 -0.11914,0.69727c0.097,0.138 0.2512,0.21094 0.4082,0.21094c0.1,0 0.20106,-0.0298 0.28906,-0.0918c2.167,-1.536 4.54436,-2.71405 7.06836,-3.49805c0.263,-0.082 0.41013,-0.361 0.32813,-0.625c-0.0615,-0.19725 -0.23139,-0.33053 -0.42578,-0.34961zM35.76367,28.01953c-0.128,0.001 -0.25506,0.05189 -0.35156,0.15039c-2.114,2.155 -3.82684,4.63233 -5.08984,7.36133c-1.185,2.561 -1.94391,5.28375 -2.25391,8.09375c-0.03,0.274 0.16936,0.52173 0.44336,0.55273c0.019,0.002 0.03669,0.00195 0.05469,0.00195c0.251,0 0.46709,-0.18931 0.49609,-0.44531c0.298,-2.702 1.02702,-5.3202 2.16602,-7.7832c1.215,-2.625 2.86444,-5.00808 4.89844,-7.08008c0.193,-0.197 0.18919,-0.51403 -0.00781,-0.70703c-0.0985,-0.0975 -0.22747,-0.14553 -0.35547,-0.14453zM61.28906,35.62305c-0.18212,0 -0.36377,0.08586 -0.44727,0.25586l-1.07031,2.16602l-2.39062,0.34766c-0.188,0.027 -0.3453,0.15784 -0.4043,0.33984c-0.059,0.181 -0.00905,0.38067 0.12695,0.51367l1.73242,1.6875l-0.41016,2.37891c-0.032,0.188 0.04522,0.37923 0.19922,0.49023c0.087,0.063 0.19092,0.0957 0.29492,0.0957c0.08,0 0.15847,-0.01959 0.23047,-0.05859l2.13867,-1.12305l2.14063,1.12305c0.168,0.091 0.37239,0.07589 0.52539,-0.03711c0.154,-0.111 0.23122,-0.30323 0.19922,-0.49023l-0.41016,-2.37891l1.73047,-1.6875c0.136,-0.133 0.18595,-0.33267 0.12695,-0.51367c-0.059,-0.182 -0.2153,-0.31184 -0.4043,-0.33984l-2.39062,-0.34766l-1.07031,-2.16602c-0.084,-0.17 -0.26514,-0.25586 -0.44727,-0.25586zM61.28906,37.23047l0.73633,1.49414c0.073,0.147 0.21395,0.24944 0.37695,0.27344l1.64844,0.23828l-1.19336,1.16211c-0.118,0.115 -0.17153,0.28136 -0.14453,0.44336l0.28125,1.64063l-1.47461,-0.77344c-0.073,-0.038 -0.15242,-0.05859 -0.23242,-0.05859c-0.08,0 -0.15847,0.02059 -0.23047,0.05859l-1.47656,0.77344l0.2832,-1.64062c0.028,-0.162 -0.02653,-0.32836 -0.14453,-0.44336l-1.19336,-1.16211l1.65039,-0.23828c0.163,-0.024 0.30495,-0.12644 0.37695,-0.27344zM50.46484,62.66016c-0.18212,0 -0.36377,0.08586 -0.44727,0.25586l-1.06836,2.16602l-2.39062,0.34766c-0.188,0.027 -0.3453,0.1598 -0.4043,0.3418c-0.059,0.181 -0.011,0.37872 0.125,0.51172l1.73047,1.6875l-0.4082,2.38086c-0.032,0.188 0.04522,0.37728 0.19922,0.48828c0.087,0.063 0.19092,0.0957 0.29492,0.0957c0.08,0 0.15847,-0.01764 0.23047,-0.05664l2.14063,-1.125l2.13867,1.125c0.168,0.091 0.37239,0.07394 0.52539,-0.03906c0.154,-0.111 0.23122,-0.30128 0.19922,-0.48828l-0.4082,-2.38086l1.72852,-1.6875c0.136,-0.133 0.18595,-0.33072 0.12695,-0.51172c-0.058,-0.182 -0.2153,-0.3148 -0.4043,-0.3418l-2.39062,-0.34766l-1.06836,-2.16602c-0.084,-0.17 -0.26709,-0.25586 -0.44922,-0.25586zM50.46484,64.26953l0.73633,1.49219c0.073,0.147 0.212,0.24944 0.375,0.27344l1.64844,0.23828l-1.18945,1.16406c-0.118,0.115 -0.17153,0.28136 -0.14453,0.44336l0.2832,1.64063l-1.47656,-0.77539c-0.146,-0.076 -0.31884,-0.076 -0.46484,0l-1.47461,0.77539l0.28125,-1.64062c0.028,-0.163 -0.02653,-0.32836 -0.14453,-0.44336l-1.19336,-1.16406l1.65039,-0.23828c0.163,-0.024 0.303,-0.12644 0.375,-0.27344z"></path></g></g></g></svg>