<svg xmlns="http://www.w3.org/2000/svg" xmlns:xlink="http://www.w3.org/1999/xlink" viewBox="0,0,256,256" width="32px" height="32px" fill-rule="nonzero"><g transform="translate(-3.76471,-3.76471) scale(1.02941,1.02941)"><g fill="#000000" fill-rule="nonzero" stroke="none" stroke-width="1" stroke-linecap="butt" stroke-linejoin="miter" stroke-miterlimit="10" stroke-dasharray="" stroke-dashoffset="0" font-family="none" font-weight="none" font-size="none" text-anchor="none" style="mix-blend-mode: normal"><g transform="scale(3.76471,3.76471)"><path d="M33.96094,1.5c-0.18947,0 -0.3623,0.10791 -0.44727,0.27734l-4.08008,8.16992c-0.07715,0.15527 -0.06836,0.33887 0.02344,0.48633c0.09082,0.14697 0.25098,0.23633 0.42383,0.23633h8.16992c0.17285,0 0.33398,-0.08887 0.42578,-0.23633c0.09082,-0.14746 0.09863,-0.33154 0.02148,-0.48633l-4.08984,-8.16992c-0.08496,-0.16943 -0.25781,-0.27734 -0.44727,-0.27734zM33.96094,3.11914l3.2793,6.55078h-6.55078zM49.55859,5.02344c-0.09094,0.00287 -0.1792,0.03198 -0.25781,0.08398l-7.61914,5.03516c-0.14453,0.09521 -0.22951,0.2583 -0.22461,0.43164c0.00586,0.17334 0.09961,0.33106 0.25,0.41797l7.07617,4.08594c0.07715,0.04443 0.16406,0.06641 0.25,0.06641c0.08105,0 0.16211,-0.01904 0.23633,-0.05859c0.15234,-0.08252 0.25192,-0.23926 0.26172,-0.41211l0.54297,-9.11914c0.01172,-0.18896 -0.08594,-0.36816 -0.25,-0.46289c-0.08301,-0.04736 -0.17468,-0.07123 -0.26562,-0.06836zM18.10156,5.59961c-0.09131,-0.00269 -0.18213,0.01978 -0.26367,0.06641c-0.16406,0.09521 -0.26172,0.27393 -0.25,0.46289l0.55273,9.11523c0.01074,0.17285 0.1084,0.32813 0.26172,0.41016c0.07324,0.03955 0.15527,0.06055 0.23633,0.06055c0.08594,0 0.17285,-0.02393 0.25,-0.06836l7.07617,-4.08398c0.15039,-0.08691 0.24414,-0.24463 0.25,-0.41797c0.00488,-0.17285 -0.08203,-0.33789 -0.22656,-0.43359l-7.625,-5.0293c-0.07861,-0.05151 -0.17041,-0.07935 -0.26172,-0.08203zM49.01758,6.49219l-0.43555,7.31445l-5.67383,-3.27734zM18.64648,7.06641l6.11523,4.03516l-5.67187,3.27539zM34,13.41992c-11.34766,0 -20.58008,9.23291 -20.58008,20.58008c0,11.34717 9.23242,20.58008 20.58008,20.58008c11.34766,0 20.58008,-9.23291 20.58008,-20.58008c0,-11.34717 -9.23242,-20.58008 -20.58008,-20.58008zM34,14.41992c10.7959,0 19.58008,8.78418 19.58008,19.58008c0,10.7959 -8.78418,19.58008 -19.58008,19.58008c-10.7959,0 -19.58008,-8.78418 -19.58008,-19.58008c0,-10.7959 8.78418,-19.58008 19.58008,-19.58008zM61.48828,16.74805l-9.11523,0.55078c-0.17285,0.01025 -0.32813,0.10938 -0.41016,0.26172c-0.08204,0.15234 -0.0791,0.33838 0.00781,0.48828l4.08398,7.07422c0.08594,0.1499 0.24414,0.2446 0.41797,0.25h0.01563c0.16797,0 0.32325,-0.08398 0.41602,-0.22461l5.03125,-7.625c0.1045,-0.1582 0.11035,-0.36377 0.01563,-0.52734c-0.09473,-0.16406 -0.27539,-0.26368 -0.46289,-0.24805zM6.41797,17.08594c-0.17969,-0.0083 -0.36816,0.08447 -0.46289,0.24805c-0.09375,0.16406 -0.08691,0.36914 0.01758,0.52734l5.03516,7.61719c0.09277,0.14014 0.25,0.22461 0.41797,0.22461h0.01367c0.17383,-0.00537 0.33201,-0.1001 0.41797,-0.25l4.08398,-7.07617c0.08691,-0.1499 0.08984,-0.33398 0.00781,-0.48633c-0.08203,-0.15283 -0.23633,-0.25146 -0.41016,-0.26172zM60.55078,17.80664l-4.03516,6.11719l-3.27539,-5.67578zM7.35742,18.14258l7.31445,0.43555l-3.27539,5.67578zM34,18.91992c-1.47854,0 -2.93945,0.21436 -4.33984,0.63477c-0.26467,0.07959 -0.41406,0.3584 -0.33398,0.62305c0.06445,0.21631 0.26367,0.35547 0.47852,0.35547c0.04785,0 0.09668,-0.00732 0.14453,-0.02148c1.30762,-0.39258 2.66992,-0.5918 4.05078,-0.5918c0.27637,0 0.5,-0.22363 0.5,-0.5c0,-0.27637 -0.22363,-0.5 -0.5,-0.5zM26,21.26172c-0.06383,0.01125 -0.12622,0.0332 -0.18359,0.07031c-4.31738,2.79541 -6.89648,7.53174 -6.89648,12.66797c0,0.27637 0.22363,0.5 0.5,0.5c0.27637,0 0.50195,-0.22363 0.50195,-0.5c0,-4.7959 2.40625,-9.21826 6.4375,-11.82812c0.23242,-0.15039 0.29785,-0.45947 0.14844,-0.69141c-0.11279,-0.17432 -0.31633,-0.25249 -0.50781,-0.21875zM10.19336,28.79102c-0.08386,-0.00372 -0.16894,0.01391 -0.24609,0.05273l-8.16992,4.08984c-0.16992,0.08496 -0.27539,0.2583 -0.27539,0.44727c0,0.18945 0.10645,0.3628 0.27539,0.44727l8.16992,4.08008c0.07031,0.03515 0.14649,0.05273 0.22266,0.05273c0.0918,0 0.18359,-0.02442 0.26367,-0.07422c0.14746,-0.09131 0.23633,-0.25244 0.23633,-0.42578v-8.16992c0,-0.17334 -0.08887,-0.33496 -0.23633,-0.42578c-0.07373,-0.0459 -0.15637,-0.0705 -0.24024,-0.07422zM57.80664,28.79102c-0.08386,0.00378 -0.16699,0.02881 -0.24023,0.07422c-0.14746,0.09131 -0.23633,0.25244 -0.23633,0.42578v8.16992c0,0.17334 0.08887,0.33496 0.23633,0.42578c0.08006,0.04981 0.17187,0.07422 0.26367,0.07422c0.07617,0 0.15235,-0.01758 0.22266,-0.05273l8.16992,-4.08984c0.16992,-0.08496 0.27734,-0.2583 0.27734,-0.44727c0,-0.18945 -0.1084,-0.3628 -0.27734,-0.44727l-8.16992,-4.08008c-0.07764,-0.03858 -0.16223,-0.05652 -0.24609,-0.05273zM58.33008,30.09961l6.55078,3.27148l-6.55078,3.2793zM9.66992,30.10156v6.55078l-6.55078,-3.27148zM11.14453,41.12695c-0.18359,-0.00488 -0.33691,0.07959 -0.43164,0.22461l-5.03125,7.62695c-0.10449,0.1582 -0.11035,0.36182 -0.01562,0.52539c0.08984,0.15527 0.25391,0.25 0.43164,0.25c0.00976,0 0.02148,0.00049 0.03125,0l9.11523,-0.55273c0.17285,-0.01025 0.32813,-0.10937 0.41016,-0.26172c0.08204,-0.15234 0.08105,-0.33643 -0.00586,-0.48633l-4.08594,-7.07617c-0.08594,-0.1499 -0.24414,-0.2446 -0.41797,-0.25zM56.76758,41.45703c-0.17383,0.00537 -0.33203,0.1001 -0.41797,0.25l-4.08398,7.07617c-0.08691,0.1499 -0.08984,0.33398 -0.00781,0.48633c0.08203,0.15283 0.23633,0.25146 0.41016,0.26172l9.12109,0.54297c0.00977,0.00049 0.01953,0 0.0293,0c0.17773,0 0.34375,-0.09473 0.43359,-0.25c0.09375,-0.16406 0.08887,-0.36719 -0.01562,-0.52539l-5.03711,-7.61719c-0.09473,-0.14404 -0.24512,-0.21582 -0.43164,-0.22461zM11.10156,42.57813l3.27734,5.67578l-7.3125,0.44141zM56.81055,42.90625l4.03906,6.11133l-7.31445,-0.43555zM18.13672,51.33203c-0.08398,-0.00128 -0.16943,0.01978 -0.24609,0.06055c-0.15234,0.08252 -0.25192,0.2373 -0.26172,0.41016l-0.54297,9.11914c-0.01172,0.18896 0.08594,0.36816 0.25,0.46289c0.07812,0.04493 0.16406,0.06836 0.25,0.06836c0.09668,0 0.19238,-0.0288 0.27539,-0.08398l7.61719,-5.03516c0.14453,-0.09522 0.22951,-0.2583 0.22461,-0.43164c-0.00586,-0.17334 -0.09961,-0.33106 -0.25,-0.41797l-7.07422,-4.08594c-0.07471,-0.04296 -0.1582,-0.06513 -0.24219,-0.06641zM49.53516,51.90234c-0.08398,0.00122 -0.16748,0.02319 -0.24219,0.06641l-7.07422,4.08594c-0.15039,0.08691 -0.24414,0.24463 -0.25,0.41797c-0.00488,0.17285 0.08008,0.33594 0.22461,0.43164l7.62695,5.03125c0.08301,0.05469 0.17969,0.08203 0.27539,0.08203c0.08594,0 0.17285,-0.02197 0.25,-0.06641c0.16406,-0.09522 0.25977,-0.27393 0.24805,-0.46289l-0.55078,-9.11523c-0.01074,-0.17285 -0.11035,-0.32812 -0.26367,-0.41016c-0.07568,-0.04077 -0.16016,-0.06177 -0.24414,-0.06055zM18.58008,52.66992l5.67383,3.27539l-6.10937,4.03906zM49.0918,53.24023l0.44336,7.31055l-6.11719,-4.03516zM29.88086,57.32813c-0.17285,0 -0.33398,0.09082 -0.42578,0.23828c-0.09082,0.14746 -0.09863,0.33154 -0.02148,0.48633l4.08984,8.16992c0.08496,0.16943 0.25781,0.27539 0.44727,0.27539c0.18945,0 0.3623,-0.10596 0.44727,-0.27539l4.08008,-8.16992c0.07715,-0.15527 0.07031,-0.33887 -0.02148,-0.48633c-0.09082,-0.14697 -0.25293,-0.23828 -0.42578,-0.23828zM30.69141,58.33008h6.55078l-3.27148,6.55078z"></path></g></g></g></svg>