<svg xmlns="http://www.w3.org/2000/svg"  viewBox="0 0 479.912 479.912" width="32px" height="32px"><path d="M 293.30859 0 C 287.34594 -0.0051184082 281.32273 1.3013281 275.69336 4.0410156 L 250.67383 16.214844 C 243.86283 19.527844 236.04733 19.527844 229.23633 16.214844 L 204.21875 4.0410156 C 186.20675 -4.7229844 164.16527 1.1842969 152.94727 17.779297 L 137.36719 40.830078 C 133.12419 47.106078 126.35773 51.013828 118.80273 51.548828 L 91.050781 53.517578 C 71.068781 54.934578 54.932625 71.070781 53.515625 91.050781 L 51.548828 118.80273 C 51.012828 126.35873 47.106078 133.12519 40.830078 137.36719 L 17.779297 152.94727 C 1.1832969 164.16427 -4.7229844 186.20575 4.0410156 204.21875 L 16.214844 229.23828 C 19.528844 236.05028 19.528844 243.86378 16.214844 250.67578 L 4.0410156 275.69531 C -4.7229844 293.70831 1.1842969 315.7498 17.779297 326.9668 L 40.830078 342.54688 C 47.106078 346.78888 51.013828 353.55633 51.548828 361.11133 L 53.515625 388.86328 C 54.932625 408.84328 71.067828 424.97948 91.048828 426.39648 L 118.80273 428.36523 C 126.35773 428.89923 133.12323 432.80603 137.36523 439.08203 L 152.94531 462.13672 C 164.14631 478.70672 186.1798 484.65105 204.2168 475.87305 L 229.23633 463.69922 C 236.04833 460.38622 243.86087 460.38622 250.67188 463.69922 L 275.69141 475.87305 C 293.70841 484.63705 315.74789 478.72977 326.96289 462.13477 L 342.54492 439.08398 C 346.78692 432.80798 353.55242 428.90023 361.10742 428.36523 L 388.86133 426.39648 C 408.84033 424.97948 424.97753 408.84328 426.39453 388.86328 L 428.36328 361.11133 C 428.89728 353.55533 432.80408 346.78888 439.08008 342.54688 L 462.13281 326.9668 C 478.72881 315.7498 484.63314 293.70831 475.86914 275.69531 L 463.69727 250.67383 C 460.38427 243.86183 460.38427 236.05028 463.69727 229.23828 L 475.87109 204.21875 C 484.63409 186.20575 478.72781 164.16427 462.13281 152.94727 C 458.47381 150.47127 453.49939 151.4347 451.02539 155.0957 C 448.55039 158.7557 449.51283 163.72817 453.17383 166.20117 C 463.21183 172.98617 466.78437 186.3208 461.48438 197.2168 L 449.3125 222.23633 C 443.8335 233.49633 443.8335 246.41383 449.3125 257.67383 L 461.48438 282.69336 C 466.78537 293.58936 463.21283 306.92103 453.17383 313.70703 L 430.12109 329.28906 C 419.74609 336.30306 413.2883 347.48852 412.4043 359.97852 L 410.43555 387.73047 C 409.57855 399.81747 399.81647 409.57855 387.73047 410.43555 L 359.97852 412.40234 C 347.48852 413.28734 336.30206 419.74509 329.28906 430.12109 L 313.70703 453.17383 C 306.92103 463.21283 293.58836 466.78338 282.69336 461.48438 L 257.67383 449.3125 C 246.41283 443.8325 233.49633 443.8325 222.23633 449.3125 L 197.21875 461.48438 C 186.32375 466.78537 172.98913 463.21283 166.20312 453.17383 L 150.62109 430.12109 C 143.60809 419.74609 132.42259 413.2883 119.93359 412.4043 L 92.181641 410.43555 C 80.094641 409.57855 70.333563 399.81647 69.476562 387.73047 L 67.509766 359.97852 C 66.623766 347.48752 60.165016 336.30106 49.791016 329.28906 L 26.740234 313.70703 C 16.701234 306.92203 13.128688 293.59036 18.429688 282.69336 L 30.601562 257.67383 C 36.080562 246.41383 36.080562 233.49633 30.601562 222.23633 L 18.429688 197.2168 C 13.128687 186.3208 16.700234 172.98717 26.740234 166.20117 L 49.791016 150.62109 C 60.166016 143.60809 66.624766 132.42264 67.509766 119.93164 L 69.476562 92.179688 C 70.333562 80.093688 80.094641 70.331609 92.181641 69.474609 L 119.93359 67.507812 C 132.42359 66.622812 143.60809 60.163109 150.62109 49.787109 L 166.20312 26.736328 C 172.98913 16.696328 186.32575 13.128781 197.21875 18.425781 L 222.23633 30.597656 C 233.49733 36.076656 246.41383 36.076656 257.67383 30.597656 L 282.69336 18.425781 C 293.58736 13.123781 306.92103 16.696328 313.70703 26.736328 L 329.28906 49.789062 C 336.30306 60.164062 347.48852 66.621859 359.97852 67.505859 L 387.73047 69.474609 C 399.81747 70.331609 409.57855 80.093687 410.43555 92.179688 L 412.4043 119.93164 C 412.7363 124.62664 413.87234 129.18637 415.77734 133.48438 C 417.56934 137.52238 422.29298 139.34269 426.33398 137.55469 C 430.37298 135.76369 432.1953 131.03705 430.4043 126.99805 C 429.2523 124.39905 428.56528 121.64178 428.36328 118.80078 L 426.39453 91.046875 C 424.97753 71.067875 408.84133 54.932625 388.86133 53.515625 L 361.10938 51.546875 C 353.55338 51.012875 346.78692 47.104125 342.54492 40.828125 L 326.96484 17.779297 C 319.25384 6.3695469 306.42643 0.011260498 293.30859 0 z M 239.95508 56.955078 C 199.11008 56.955078 160.47275 70.118531 128.21875 95.019531 C 124.72075 97.718531 124.07539 102.74323 126.77539 106.24023 C 129.47439 109.73723 134.49709 110.38459 137.99609 107.68359 C 167.42409 84.965594 202.68108 72.955078 239.95508 72.955078 C 332.03908 72.955078 406.95508 147.87108 406.95508 239.95508 C 406.95508 332.03908 332.03908 406.95508 239.95508 406.95508 C 147.87108 406.95508 72.955078 332.03908 72.955078 239.95508 C 72.955078 209.48208 81.238203 179.66652 96.908203 153.72852 C 99.194203 149.94852 97.979266 145.03014 94.197266 142.74414 C 90.415266 140.46014 85.499844 141.67308 83.214844 145.45508 C 66.036844 173.88908 56.955078 206.56508 56.955078 239.95508 C 56.955078 340.86108 139.04808 422.95508 239.95508 422.95508 C 340.86108 422.95508 422.95508 340.86108 422.95508 239.95508 C 422.95508 139.04908 340.86108 56.955078 239.95508 56.955078 z M 180.23047 128.87891 C 178.94096 128.91356 177.64227 129.25992 176.44727 129.95117 C 174.72127 130.95017 172.99536 132.00498 171.31836 133.08398 C 164.59736 137.40698 167.7323 147.8125 175.6543 147.8125 C 178.7683 147.8125 179.83894 146.47673 184.46094 143.80273 C 188.28494 141.58973 189.59191 136.69414 187.37891 132.86914 C 185.85747 130.24014 183.0674 128.80266 180.23047 128.87891 z M 148.32422 156.05273 C 146.01891 156.04758 143.72939 157.03477 142.14258 158.94727 C 129.84058 173.78627 120.96456 191.48858 116.47656 210.14258 C 115.26256 215.19258 119.10072 220.01758 124.26172 220.01758 C 127.87372 220.01758 131.14925 217.55467 132.03125 213.88867 C 135.95225 197.59567 143.70894 182.12816 154.46094 169.16016 C 157.28094 165.75916 156.80825 160.71453 153.40625 157.89453 C 151.91875 156.66078 150.11724 156.05675 148.32422 156.05273 z"/></svg>