<svg xmlns="http://www.w3.org/2000/svg" xmlns:xlink="http://www.w3.org/1999/xlink" viewBox="0,0,256,256" width="24px" height="24px" fill-rule="nonzero"><g transform="translate(-8,-8) scale(1.0625,1.0625)"><g fill="#000000" fill-rule="nonzero" stroke="none" stroke-width="1" stroke-linecap="butt" stroke-linejoin="miter" stroke-miterlimit="10" stroke-dasharray="" stroke-dashoffset="0" font-family="none" font-weight="none" font-size="none" text-anchor="none" style="mix-blend-mode: normal"><g transform="scale(4,4)"><path d="M31.93555,2.01172c-0.32931,0.02162 -0.62675,0.20432 -0.79492,0.48828l-5.75,9.83984c-0.2102,0.35713 -0.17835,0.80691 0.08008,1.13086c0.25558,0.31745 0.67825,0.44804 1.06836,0.33008c3.56344,-1.0602 7.35844,-1.0602 10.92188,0c0.09256,0.01421 0.18674,0.01421 0.2793,0c0.3076,0.00116 0.59862,-0.1393 0.78906,-0.38086c0.25843,-0.32395 0.29028,-0.77373 0.08008,-1.13086l-5.75,-9.78906c-0.19165,-0.3235 -0.54858,-0.51215 -0.92383,-0.48828zM32,5l3.69922,6.34961c-2.44654,-0.43976 -4.9519,-0.43976 -7.39844,0zM11.48242,10.49805c-0.30152,0.01376 -0.58068,0.16297 -0.75965,0.40602c-0.17897,0.24305 -0.23858,0.55392 -0.16222,0.84593l2.86914,11.00977c0.10266,0.39501 0.43507,0.68799 0.83984,0.74023h0.12109c0.36596,0.00069 0.70307,-0.19858 0.87891,-0.51953c1.76687,-3.27131 4.4547,-5.95235 7.73047,-7.71094c0.35616,-0.19696 0.55743,-0.59012 0.50895,-0.99421c-0.04847,-0.4041 -0.33702,-0.7385 -0.72966,-0.84563l-11,-2.90039c-0.09684,-0.02521 -0.19691,-0.03575 -0.29687,-0.03125zM52.52734,10.52734c-0.09355,-0.00196 -0.1869,0.00921 -0.27734,0.0332l-11,2.90039c-0.37867,0.11017 -0.65723,0.4326 -0.71123,0.82326c-0.054,0.39066 0.12664,0.77657 0.46123,0.98533c3.27853,1.76382 5.96665,4.45194 7.73047,7.73047c0.17583,0.32095 0.51294,0.52022 0.87891,0.51953h0.12109c0.40477,-0.05224 0.73718,-0.34523 0.83984,-0.74023l2.90039,-11c0.07704,-0.29555 0.01479,-0.61011 -0.16901,-0.85404c-0.1838,-0.24393 -0.46901,-0.39049 -0.77435,-0.39791zM12.90039,12.90039l7.09961,1.85938c-2.04008,1.42319 -3.81109,3.1975 -5.23047,5.24023zM51.09961,12.90039l-1.86914,7.09961c-1.42028,-2.03924 -3.19123,-3.81019 -5.23047,-5.23047zM32,15c-9.38884,0 -17,7.61116 -17,17c0,9.38884 7.61116,17 17,17c9.38884,0 17,-7.61116 17,-17c0,-9.38884 -7.61116,-17 -17,-17zM31.37695,17.01367c4.08269,-0.16973 8.05791,1.33349 11.00677,4.16216c2.94886,2.82867 4.61608,6.73795 4.61628,10.82417c0,8.28427 -6.71573,15 -15,15c-8.15621,-0.00925 -14.81031,-6.53393 -14.97974,-14.68839c-0.16943,-8.15446 6.20791,-14.9499 14.3567,-15.29794zM12.80859,25.25586c-0.16498,0.00554 -0.32602,0.05184 -0.46875,0.13477l-9.83984,5.75c-0.30299,0.18029 -0.48865,0.5068 -0.48865,0.85938c0,0.35257 0.18566,0.67909 0.48865,0.85938l9.83984,5.75c0.15519,0.08835 0.33121,0.13354 0.50976,0.13086c0.22151,-0.00066 0.43654,-0.07486 0.61133,-0.21094c0.32102,-0.25317 0.45561,-0.67625 0.33984,-1.06836c-1.06893,-3.56216 -1.06893,-7.35971 0,-10.92188c0.11576,-0.39211 -0.01882,-0.81519 -0.33984,-1.06836c-0.18526,-0.14638 -0.41635,-0.22249 -0.65234,-0.21484zM51.18359,25.25586c-0.23333,-0.0058 -0.46134,0.07021 -0.64453,0.21484c-0.32102,0.25317 -0.45561,0.67625 -0.33984,1.06836c1.06893,3.56216 1.06893,7.35971 0,10.92188c-0.11576,0.39211 0.01882,0.81519 0.33984,1.06836c0.17479,0.13608 0.38981,0.21027 0.61133,0.21094c0.17856,0.00268 0.35458,-0.04251 0.50977,-0.13086l9.83984,-5.75c0.30299,-0.18029 0.48865,-0.5068 0.48865,-0.85937c0,-0.35257 -0.18566,-0.67909 -0.48865,-0.85937l-9.83984,-5.75c-0.14504,-0.08417 -0.30892,-0.13051 -0.47656,-0.13477zM11.34961,28.30078c-0.43976,2.44654 -0.43976,4.9519 0,7.39844l-0.01953,0.04102l-6.33008,-3.74023zM52.66992,28.30078l6.33008,3.69922l-6.33008,3.69922c0.43976,-2.44654 0.43976,-4.9519 0,-7.39844zM14.35938,40.48828c-0.43935,0.01613 -0.81664,0.31732 -0.92969,0.74219l-2.90039,11c-0.0826,0.3063 -0.01496,0.63362 0.18228,0.88209c0.19724,0.24847 0.50067,0.38862 0.81772,0.37768c0.08598,0.01452 0.17379,0.01452 0.25976,0l11,-2.90039c0.40344,-0.10204 0.70151,-0.44326 0.74842,-0.85675c0.04691,-0.41349 -0.16716,-0.81281 -0.53748,-1.00263c-3.27853,-1.76382 -5.96665,-4.45194 -7.73047,-7.73047c-0.18318,-0.32799 -0.53473,-0.52565 -0.91016,-0.51172zM49.61914,40.49023c-0.36738,-0.00625 -0.7086,0.18948 -0.88867,0.50977c-1.76382,3.27853 -4.45194,5.96665 -7.73047,7.73047c-0.35595,0.19853 -0.55579,0.59322 -0.50513,0.99763c0.05066,0.40441 0.34168,0.73761 0.7356,0.84221l11,2.90039c0.08598,0.01452 0.17379,0.01452 0.25977,0c0.31705,0.01094 0.62048,-0.1292 0.81772,-0.37768c0.19724,-0.24847 0.26488,-0.57579 0.18228,-0.88209l-2.91992,-10.9707c-0.11236,-0.43543 -0.50154,-0.7423 -0.95117,-0.75zM14.76953,44c1.42028,2.03924 3.19123,3.81019 5.23047,5.23047l-7.09961,1.86914zM49.23047,44l1.86914,7.09961l-7.09961,-1.85937c2.04008,-1.42319 3.81109,-3.1975 5.23047,-5.24023zM26.24414,50.15625c-0.3008,0.00169 -0.58485,0.1387 -0.77344,0.37305c-0.25843,0.32395 -0.29028,0.77373 -0.08008,1.13086l5.75,9.83984c0.18029,0.30299 0.5068,0.48865 0.85938,0.48865c0.35257,0 0.67909,-0.18566 0.85938,-0.48865l5.75,-9.83984c0.2102,-0.35713 0.17835,-0.80691 -0.08008,-1.13086c-0.25558,-0.31745 -0.67825,-0.44804 -1.06836,-0.33008c-3.56344,1.0602 -7.35844,1.0602 -10.92188,0c-0.09561,-0.02897 -0.19502,-0.04346 -0.29492,-0.04297zM28.30078,52.65039c2.44654,0.43976 4.9519,0.43976 7.39844,0l-3.69922,6.34961z"></path></g></g></g></svg>